<svg width="168" height="168" viewBox="0 0 168 168" fill="none" xmlns="http://www.w3.org/2000/svg">
<path d="M106.5 60.0996H61.5V105.1H106.5V60.0996Z" stroke="#222021" stroke-width="3" stroke-miterlimit="10"/>
<path d="M166.5 1.5H1.5V166.5H166.5V1.5Z" stroke="#222021" stroke-width="3" stroke-miterlimit="10"/>
<path d="M61.5 60.1V30.8L31.5 1.5" stroke="#222021" stroke-width="3" stroke-miterlimit="10"/>
<path d="M76.5 1.5V59.9" stroke="#222021" stroke-width="3" stroke-miterlimit="10"/>
<path d="M91.5 1.5V59.9" stroke="#222021" stroke-width="3" stroke-miterlimit="10"/>
<path d="M166.5 1.5L106.5 60.1" stroke="#222021" stroke-width="3" stroke-miterlimit="10"/>
<path d="M106.5 75.0996H136.5L166.5 45.0996" stroke="#222021" stroke-width="3" stroke-miterlimit="10"/>
<path d="M106.5 90.0996H121.5L166.5 135.1" stroke="#222021" stroke-width="3" stroke-miterlimit="10"/>
<path d="M76.5 105.301V136.501H1.5" stroke="#222021" stroke-width="3" stroke-miterlimit="10"/>
<path d="M165.9 166.5H0.900391" stroke="#222021" stroke-width="3" stroke-miterlimit="10"/>
<path d="M61.5008 75.1008H46.1008L1.80078 30.8008" stroke="#222021" stroke-width="3" stroke-miterlimit="10"/>
<path d="M61.5 90.1004H31.7L1.5 59.9004" stroke="#222021" stroke-width="3" stroke-miterlimit="10"/>
<path d="M61.4992 105.1H25.6992" stroke="#222021" stroke-width="3" stroke-miterlimit="10"/>
<path d="M21.1 109.7C23.6405 109.7 25.7 107.641 25.7 105.1C25.7 102.559 23.6405 100.5 21.1 100.5C18.5595 100.5 16.5 102.559 16.5 105.1C16.5 107.641 18.5595 109.7 21.1 109.7Z" stroke="#222021" stroke-width="3" stroke-miterlimit="10"/>
<path d="M106.5 135.1C109.041 135.1 111.1 133.041 111.1 130.5C111.1 127.96 109.041 125.9 106.5 125.9C103.96 125.9 101.9 127.96 101.9 130.5C101.9 133.041 103.96 135.1 106.5 135.1Z" stroke="#222021" stroke-width="3" stroke-miterlimit="10"/>
<path d="M111.1 35.3992C113.641 35.3992 115.7 33.3397 115.7 30.7992C115.7 28.2587 113.641 26.1992 111.1 26.1992C108.559 26.1992 106.5 28.2587 106.5 30.7992C106.5 33.3397 108.559 35.3992 111.1 35.3992Z" stroke="#222021" stroke-width="3" stroke-miterlimit="10"/>
<path d="M91.5 105.301V136.501L61.5 166.501" stroke="#222021" stroke-width="3" stroke-miterlimit="10"/>
<path d="M106.5 105.1L137.9 136.5V166.5" stroke="#222021" stroke-width="3" stroke-miterlimit="10"/>
<path d="M106.5 135.1V167.6" stroke="#222021" stroke-width="3" stroke-miterlimit="10"/>
<path d="M91.5 30.8008H106.5" stroke="#222021" stroke-width="3" stroke-miterlimit="10"/>
</svg>
