<svg width="233" height="233" viewBox="0 0 233 233" fill="none" xmlns="http://www.w3.org/2000/svg">
<path d="M17.4379 33.7193C25.8583 33.7193 32.6844 26.6703 32.6844 17.9749C32.6844 9.27948 25.8583 2.23047 17.4379 2.23047C9.01749 2.23047 2.19141 9.27948 2.19141 17.9749C2.19141 26.6703 9.01749 33.7193 17.4379 33.7193Z" stroke="white" stroke-width="3" stroke-miterlimit="10"/>
<path d="M66.9887 33.7193C75.4091 33.7193 82.2351 26.6703 82.2351 17.9749C82.2351 9.27948 75.4091 2.23047 66.9887 2.23047C58.5683 2.23047 51.7422 9.27948 51.7422 17.9749C51.7422 26.6703 58.5683 33.7193 66.9887 33.7193Z" stroke="white" stroke-width="3" stroke-miterlimit="10"/>
<path d="M116.461 33.7193C124.882 33.7193 131.708 26.6703 131.708 17.9749C131.708 9.27948 124.882 2.23047 116.461 2.23047C108.041 2.23047 101.215 9.27948 101.215 17.9749C101.215 26.6703 108.041 33.7193 116.461 33.7193Z" stroke="white" stroke-width="3" stroke-miterlimit="10"/>
<path d="M166.012 33.7193C174.432 33.7193 181.259 26.6703 181.259 17.9749C181.259 9.27948 174.432 2.23047 166.012 2.23047C157.592 2.23047 150.766 9.27948 150.766 17.9749C150.766 26.6703 157.592 33.7193 166.012 33.7193Z" stroke="white" stroke-width="3" stroke-miterlimit="10"/>
<path d="M215.563 33.7193C223.983 33.7193 230.809 26.6703 230.809 17.9749C230.809 9.27948 223.983 2.23047 215.563 2.23047C207.142 2.23047 200.316 9.27948 200.316 17.9749C200.316 26.6703 207.142 33.7193 215.563 33.7193Z" stroke="white" stroke-width="3" stroke-miterlimit="10"/>
<path d="M17.4379 83.0025C25.8583 83.0025 32.6844 75.9535 32.6844 67.2581C32.6844 58.5627 25.8583 51.5137 17.4379 51.5137C9.01749 51.5137 2.19141 58.5627 2.19141 67.2581C2.19141 75.9535 9.01749 83.0025 17.4379 83.0025Z" stroke="white" stroke-width="3" stroke-miterlimit="10"/>
<path d="M66.9887 83.0025C75.4091 83.0025 82.2351 75.9535 82.2351 67.2581C82.2351 58.5627 75.4091 51.5137 66.9887 51.5137C58.5683 51.5137 51.7422 58.5627 51.7422 67.2581C51.7422 75.9535 58.5683 83.0025 66.9887 83.0025Z" stroke="white" stroke-width="3" stroke-miterlimit="10"/>
<path d="M116.461 83.0025C124.882 83.0025 131.708 75.9535 131.708 67.2581C131.708 58.5627 124.882 51.5137 116.461 51.5137C108.041 51.5137 101.215 58.5627 101.215 67.2581C101.215 75.9535 108.041 83.0025 116.461 83.0025Z" stroke="white" stroke-width="3" stroke-miterlimit="10"/>
<path d="M166.012 83.0025C174.432 83.0025 181.259 75.9535 181.259 67.2581C181.259 58.5627 174.432 51.5137 166.012 51.5137C157.592 51.5137 150.766 58.5627 150.766 67.2581C150.766 75.9535 157.592 83.0025 166.012 83.0025Z" stroke="white" stroke-width="3" stroke-miterlimit="10"/>
<path d="M215.563 83.0025C223.983 83.0025 230.809 75.9535 230.809 67.2581C230.809 58.5627 223.983 51.5137 215.563 51.5137C207.142 51.5137 200.316 58.5627 200.316 67.2581C200.316 75.9535 207.142 83.0025 215.563 83.0025Z" stroke="white" stroke-width="3" stroke-miterlimit="10"/>
<path d="M17.4379 132.286C25.8583 132.286 32.6844 125.237 32.6844 116.541C32.6844 107.846 25.8583 100.797 17.4379 100.797C9.01749 100.797 2.19141 107.846 2.19141 116.541C2.19141 125.237 9.01749 132.286 17.4379 132.286Z" stroke="white" stroke-width="3" stroke-miterlimit="10"/>
<path d="M66.9887 132.286C75.4091 132.286 82.2351 125.237 82.2351 116.541C82.2351 107.846 75.4091 100.797 66.9887 100.797C58.5683 100.797 51.7422 107.846 51.7422 116.541C51.7422 125.237 58.5683 132.286 66.9887 132.286Z" stroke="white" stroke-width="3" stroke-miterlimit="10"/>
<path d="M116.461 132.286C124.882 132.286 131.708 125.237 131.708 116.541C131.708 107.846 124.882 100.797 116.461 100.797C108.041 100.797 101.215 107.846 101.215 116.541C101.215 125.237 108.041 132.286 116.461 132.286Z" stroke="white" stroke-width="3" stroke-miterlimit="10"/>
<path d="M166.012 132.286C174.432 132.286 181.259 125.237 181.259 116.541C181.259 107.846 174.432 100.797 166.012 100.797C157.592 100.797 150.766 107.846 150.766 116.541C150.766 125.237 157.592 132.286 166.012 132.286Z" stroke="white" stroke-width="3" stroke-miterlimit="10"/>
<path d="M215.563 132.286C223.983 132.286 230.809 125.237 230.809 116.541C230.809 107.846 223.983 100.797 215.563 100.797C207.142 100.797 200.316 107.846 200.316 116.541C200.316 125.237 207.142 132.286 215.563 132.286Z" stroke="white" stroke-width="3" stroke-miterlimit="10"/>
<path d="M17.4379 181.487C25.8583 181.487 32.6844 174.438 32.6844 165.742C32.6844 157.047 25.8583 149.998 17.4379 149.998C9.01749 149.998 2.19141 157.047 2.19141 165.742C2.19141 174.438 9.01749 181.487 17.4379 181.487Z" stroke="white" stroke-width="3" stroke-miterlimit="10"/>
<path d="M66.9887 181.487C75.4091 181.487 82.2351 174.438 82.2351 165.742C82.2351 157.047 75.4091 149.998 66.9887 149.998C58.5683 149.998 51.7422 157.047 51.7422 165.742C51.7422 174.438 58.5683 181.487 66.9887 181.487Z" stroke="white" stroke-width="3" stroke-miterlimit="10"/>
<path d="M116.461 181.487C124.882 181.487 131.708 174.438 131.708 165.742C131.708 157.047 124.882 149.998 116.461 149.998C108.041 149.998 101.215 157.047 101.215 165.742C101.215 174.438 108.041 181.487 116.461 181.487Z" stroke="white" stroke-width="3" stroke-miterlimit="10"/>
<path d="M166.012 181.487C174.432 181.487 181.259 174.438 181.259 165.742C181.259 157.047 174.432 149.998 166.012 149.998C157.592 149.998 150.766 157.047 150.766 165.742C150.766 174.438 157.592 181.487 166.012 181.487Z" stroke="white" stroke-width="3" stroke-miterlimit="10"/>
<path d="M215.563 181.487C223.983 181.487 230.809 174.438 230.809 165.742C230.809 157.047 223.983 149.998 215.563 149.998C207.142 149.998 200.316 157.047 200.316 165.742C200.316 174.438 207.142 181.487 215.563 181.487Z" stroke="white" stroke-width="3" stroke-miterlimit="10"/>
<path d="M17.4379 230.77C25.8583 230.77 32.6844 223.721 32.6844 215.026C32.6844 206.33 25.8583 199.281 17.4379 199.281C9.01749 199.281 2.19141 206.33 2.19141 215.026C2.19141 223.721 9.01749 230.77 17.4379 230.77Z" stroke="white" stroke-width="3" stroke-miterlimit="10"/>
<path d="M66.9887 230.77C75.4091 230.77 82.2351 223.721 82.2351 215.026C82.2351 206.33 75.4091 199.281 66.9887 199.281C58.5683 199.281 51.7422 206.33 51.7422 215.026C51.7422 223.721 58.5683 230.77 66.9887 230.77Z" stroke="white" stroke-width="3" stroke-miterlimit="10"/>
<path d="M116.461 230.77C124.882 230.77 131.708 223.721 131.708 215.026C131.708 206.33 124.882 199.281 116.461 199.281C108.041 199.281 101.215 206.33 101.215 215.026C101.215 223.721 108.041 230.77 116.461 230.77Z" stroke="white" stroke-width="3" stroke-miterlimit="10"/>
<path d="M166.012 230.77C174.432 230.77 181.259 223.721 181.259 215.026C181.259 206.33 174.432 199.281 166.012 199.281C157.592 199.281 150.766 206.33 150.766 215.026C150.766 223.721 157.592 230.77 166.012 230.77Z" stroke="white" stroke-width="3" stroke-miterlimit="10"/>
<path d="M215.563 230.77C223.983 230.77 230.809 223.721 230.809 215.026C230.809 206.33 223.983 199.281 215.563 199.281C207.142 199.281 200.316 206.33 200.316 215.026C200.316 223.721 207.142 230.77 215.563 230.77Z" stroke="white" stroke-width="3" stroke-miterlimit="10"/>
</svg>
