<svg width="39" height="39" viewBox="0 0 39 39" fill="none" xmlns="http://www.w3.org/2000/svg">
<mask id="mask0" mask-type="alpha" maskUnits="userSpaceOnUse" x="0" y="0" width="39" height="39">
<circle cx="19.5" cy="19.5" r="19.5" fill="#C4C4C4"/>
</mask>
<g mask="url(#mask0)">
<line x1="-28.2447" y1="11.5035" x2="27.4964" y2="67.2445" stroke="white" stroke-width="2"/>
<line x1="-21.3843" y1="4.64311" x2="34.3567" y2="60.3842" stroke="white" stroke-width="2"/>
<line x1="-14.524" y1="-2.21712" x2="41.2171" y2="53.524" stroke="white" stroke-width="2"/>
<line x1="-7.66368" y1="-9.07747" x2="48.0774" y2="46.6636" stroke="white" stroke-width="2"/>
<line x1="-0.802949" y1="-15.9382" x2="54.9381" y2="39.8029" stroke="white" stroke-width="2"/>
<line x1="6.05739" y1="-22.7985" x2="61.7985" y2="32.9425" stroke="white" stroke-width="2"/>
<line x1="12.9177" y1="-29.6589" x2="68.6588" y2="26.0822" stroke="white" stroke-width="2"/>
<line x1="11.5035" y1="67.2447" x2="67.2446" y2="11.5036" stroke="white" stroke-width="2"/>
<line x1="4.64291" y1="60.3841" x2="60.384" y2="4.643" stroke="white" stroke-width="2"/>
<line x1="-2.21741" y1="53.5237" x2="53.5237" y2="-2.21735" stroke="white" stroke-width="2"/>
<line x1="-9.07774" y1="46.6634" x2="46.6633" y2="-9.0777" stroke="white" stroke-width="2"/>
<line x1="-15.9381" y1="39.803" x2="39.803" y2="-15.9381" stroke="white" stroke-width="2"/>
<line x1="-22.7988" y1="32.9423" x2="32.9423" y2="-22.7988" stroke="white" stroke-width="2"/>
<line x1="-29.6591" y1="26.0821" x2="26.0819" y2="-29.659" stroke="white" stroke-width="2"/>
</g>
<circle cx="19.5" cy="19.5" r="18.5" stroke="white" stroke-width="2"/>
</svg>
