<svg width="24" height="24" viewBox="0 0 24 24" fill="none" xmlns="http://www.w3.org/2000/svg">
<g clip-path="url(#clip0)">
<path d="M12 2.16211C15.2044 2.16211 15.5835 2.1745 16.8492 2.23214C18.0191 2.28549 18.6545 2.48079 19.0775 2.64513C19.6377 2.86281 20.0373 3.1229 20.4574 3.54255C20.8776 3.96269 21.1377 4.36234 21.3549 4.92251C21.5192 5.34551 21.7145 5.98095 21.7679 7.15084C21.8255 8.416 21.8379 8.79565 21.8379 12C21.8379 15.2043 21.8255 15.5835 21.7679 16.8492C21.7145 18.0191 21.5192 18.6545 21.3549 19.0775C21.1372 19.6377 20.8771 20.0373 20.4574 20.4574C20.0373 20.8776 19.6377 21.1377 19.0775 21.3549C18.6545 21.5192 18.0191 21.7145 16.8492 21.7679C15.584 21.8255 15.2044 21.8379 12 21.8379C8.79565 21.8379 8.41601 21.8255 7.15084 21.7679C5.98095 21.7145 5.34551 21.5192 4.92252 21.3549C4.36234 21.1372 3.96269 20.8771 3.54255 20.4574C3.12242 20.0373 2.86234 19.6377 2.64513 19.0775C2.48079 18.6545 2.28549 18.0191 2.23214 16.8492C2.1745 15.584 2.16212 15.2043 2.16212 12C2.16212 8.79565 2.1745 8.41648 2.23214 7.15084C2.28549 5.98095 2.48079 5.34551 2.64513 4.92251C2.86281 4.36234 3.1229 3.96269 3.54255 3.54255C3.96269 3.12242 4.36234 2.86234 4.92252 2.64513C5.34551 2.48079 5.98095 2.28549 7.15084 2.23214C8.41648 2.1745 8.79565 2.16211 12 2.16211ZM12 0C8.74087 0 8.33217 0.0138139 7.05224 0.0724039C5.77517 0.130518 4.90299 0.333439 4.13941 0.6302C3.35011 0.936964 2.68085 1.34709 2.01397 2.01445C1.34709 2.68133 0.936488 3.35059 0.6302 4.13941C0.333439 4.90298 0.130518 5.77517 0.0724039 7.05224C0.0138139 8.33217 0 8.74087 0 12C0 15.2591 0.0138139 15.6678 0.0724039 16.9478C0.130518 18.2248 0.333439 19.097 0.6302 19.8606C0.936964 20.6499 1.34709 21.3191 2.01445 21.986C2.6818 22.6534 3.35059 23.0635 4.13989 23.3703C4.90299 23.667 5.77564 23.87 7.05272 23.9281C8.33265 23.9867 8.74135 24.0005 12.0005 24.0005C15.2596 24.0005 15.6683 23.9867 16.9482 23.9281C18.2253 23.87 19.098 23.667 19.8611 23.3703C20.6504 23.0635 21.3196 22.6534 21.9865 21.986C22.6539 21.3187 23.064 20.6499 23.3708 19.8606C23.6675 19.0975 23.8704 18.2248 23.9286 16.9478C23.9871 15.6678 24.001 15.2591 24.001 12C24.001 8.74087 23.9871 8.33217 23.9286 7.05224C23.8704 5.77517 23.6675 4.90251 23.3708 4.13941C23.064 3.35011 22.6539 2.68085 21.9865 2.01397C21.3192 1.34662 20.6504 0.936488 19.8611 0.629724C19.097 0.333439 18.2248 0.130518 16.9478 0.0724039C15.6678 0.0138139 15.2591 0 12 0Z" fill="#5A5C5B"/>
<path d="M11.9998 5.83789C8.59639 5.83789 5.83789 8.59686 5.83789 11.9998C5.83789 15.4028 8.59686 18.1618 11.9998 18.1618C15.4028 18.1618 18.1618 15.4028 18.1618 11.9998C18.1618 8.59686 15.4033 5.83789 11.9998 5.83789ZM11.9998 15.9997C9.79057 15.9997 8.00001 14.2086 8.00001 11.9998C8.00001 9.79057 9.79105 8.00001 11.9998 8.00001C14.2086 8.00001 15.9997 9.79105 15.9997 11.9998C15.9997 14.2091 14.2091 15.9997 11.9998 15.9997Z" fill="#5A5C5B"/>
<path d="M18.4058 7.03426C19.2011 7.03426 19.8458 6.38956 19.8458 5.59428C19.8458 4.799 19.2011 4.1543 18.4058 4.1543C17.6106 4.1543 16.9659 4.799 16.9659 5.59428C16.9659 6.38956 17.6106 7.03426 18.4058 7.03426Z" fill="#5A5C5B"/>
</g>
<defs>
<clipPath id="clip0">
<rect width="24" height="24" fill="white"/>
</clipPath>
</defs>
</svg>
