<svg width="23" height="24" viewBox="0 0 23 24" fill="none" xmlns="http://www.w3.org/2000/svg">
<path d="M23 21.601C23 22.9267 21.9619 24 20.6817 24H2.31833C1.0381 24 0 22.9253 0 21.601V2.39903C0 1.07467 1.0381 0 2.31833 0H20.6817C21.9632 0 23 1.07467 23 2.39903V21.601ZM5.85267 4.27246C4.85471 4.27246 4.20322 4.96499 4.20322 5.8686C4.20322 6.75013 4.83464 7.46474 5.8112 7.46474C6.8493 7.46474 7.48072 6.75013 7.48072 5.8686C7.46199 4.96499 6.85064 4.27246 5.85267 4.27246ZM7.38039 18.9895V8.72288H4.28616V18.9895H7.38039ZM9.23184 18.9895H12.3261V13.0698C12.3261 12.776 12.3461 12.4822 12.4277 12.2725C12.6511 11.6848 13.1608 11.0764 14.0156 11.0764C15.1353 11.0764 15.5835 11.9786 15.5835 13.3016V18.9909H18.6777V12.9222C18.6777 9.89964 17.1513 8.4925 15.1153 8.4925C13.4458 8.4925 12.4478 9.47888 12.0411 10.1507H11.9796L11.8364 8.72288H9.15157C9.19171 9.64718 9.23318 10.7177 9.23318 11.9979V18.9895H9.23184Z" fill="#5A5C5B"/>
</svg>
