<svg width="40" height="40" viewBox="0 0 40 40" fill="none" xmlns="http://www.w3.org/2000/svg">
<path d="M20 2C29.93 2 38 10.07 38 20C38 29.93 29.93 38 20 38C10.07 38 2 29.93 2 20C2 10.07 10.07 2 20 2ZM20 0C8.95 0 0 8.95 0 20C0 31.05 8.95 40 20 40C31.05 40 40 31.05 40 20C40 8.95 31.05 0 20 0Z" fill="#222021"/>
<path d="M20.0009 8.71094C26.2309 8.71094 31.2909 13.7809 31.2909 20.0009C31.2909 26.2309 26.2209 31.2909 20.0009 31.2909C13.7809 31.2909 8.71094 26.2309 8.71094 20.0009C8.71094 13.7709 13.7709 8.71094 20.0009 8.71094ZM20.0009 6.71094C12.6609 6.71094 6.71094 12.6609 6.71094 20.0009C6.71094 27.3409 12.6609 33.2909 20.0009 33.2909C27.3409 33.2909 33.2909 27.3409 33.2909 20.0009C33.2909 12.6609 27.3409 6.71094 20.0009 6.71094Z" fill="#222021"/>
<path d="M20.0019 15.4199C22.5319 15.4199 24.5819 17.4799 24.5819 19.9999C24.5819 22.5199 22.5219 24.5799 20.0019 24.5799C17.4819 24.5799 15.4219 22.5199 15.4219 19.9999C15.4219 17.4799 17.4719 15.4199 20.0019 15.4199ZM20.0019 13.4199C16.3719 13.4199 13.4219 16.3699 13.4219 19.9999C13.4219 23.6299 16.3719 26.5799 20.0019 26.5799C23.6319 26.5799 26.5819 23.6299 26.5819 19.9999C26.5819 16.3699 23.6319 13.4199 20.0019 13.4199Z" fill="#222021"/>
</svg>
