<svg width="40" height="40" viewBox="0 0 40 40" fill="none" xmlns="http://www.w3.org/2000/svg">
<path d="M20 2C29.93 2 38 10.07 38 20C38 29.93 29.93 38 20 38C10.07 38 2 29.93 2 20C2 10.07 10.07 2 20 2ZM20 0C8.95 0 0 8.95 0 20C0 31.05 8.95 40 20 40C31.05 40 40 31.05 40 20C40 8.95 31.05 0 20 0Z" fill="#222021"/>
<path d="M20 0V12.06" stroke="#222021" stroke-width="2" stroke-miterlimit="10"/>
<path d="M2.67969 10L13.1197 16.03" stroke="#222021" stroke-width="2" stroke-miterlimit="10"/>
<path d="M2.67969 30.0007L13.1197 23.9707" stroke="#222021" stroke-width="2" stroke-miterlimit="10"/>
<path d="M20 39.9995V27.9395" stroke="#222021" stroke-width="2" stroke-miterlimit="10"/>
<path d="M37.3189 30.0007L26.8789 23.9707" stroke="#222021" stroke-width="2" stroke-miterlimit="10"/>
<path d="M37.3189 10L26.8789 16.03" stroke="#222021" stroke-width="2" stroke-miterlimit="10"/>
</svg>
