<svg width="40" height="40" viewBox="0 0 40 40" fill="none" xmlns="http://www.w3.org/2000/svg">
<path d="M18.7188 6.93977C18.7188 7.58977 19.2488 8.11977 19.8988 8.11977C20.5488 8.11977 21.0788 7.58977 21.0788 6.93977C21.0788 6.28977 20.5488 5.75977 19.8988 5.75977C19.2488 5.75977 18.7188 6.28977 18.7188 6.93977Z" fill="white"/>
<path d="M23.2073 1.45898C22.5573 1.45898 22.0273 1.98898 22.0273 2.63898C22.0273 3.28898 22.5573 3.81898 23.2073 3.81898C23.8573 3.81898 24.3873 3.28898 24.3873 2.63898C24.3873 1.98898 23.8573 1.45898 23.2073 1.45898Z" fill="white"/>
<path d="M23.2073 35.9297C22.5573 35.9297 22.0273 36.4497 22.0273 37.1097C22.0273 37.7597 22.5573 38.2897 23.2073 38.2897C23.8673 38.2897 24.3873 37.7597 24.3873 37.1097C24.3873 36.4497 23.8673 35.9297 23.2073 35.9297Z" fill="white"/>
<path d="M23.2073 10.0684C22.5573 10.0684 22.0273 10.5984 22.0273 11.2484C22.0273 11.8984 22.5573 12.4284 23.2073 12.4284C23.8573 12.4284 24.3873 11.8984 24.3873 11.2484C24.3873 10.5984 23.8573 10.0684 23.2073 10.0684Z" fill="white"/>
<path d="M23.2073 18.6895C22.5573 18.6895 22.0273 19.2095 22.0273 19.8695C22.0273 20.5195 22.5573 21.0495 23.2073 21.0495C23.8673 21.0495 24.3873 20.5195 24.3873 19.8695C24.3873 19.2095 23.8673 18.6895 23.2073 18.6895Z" fill="white"/>
<path d="M19.887 16.7389C20.5387 16.7389 21.067 16.2106 21.067 15.5589C21.067 14.9072 20.5387 14.3789 19.887 14.3789C19.2353 14.3789 18.707 14.9072 18.707 15.5589C18.707 16.2106 19.2353 16.7389 19.887 16.7389Z" fill="white"/>
<path d="M19.887 25.36C20.5387 25.36 21.067 24.8317 21.067 24.18C21.067 23.5283 20.5387 23 19.887 23C19.2353 23 18.707 23.5283 18.707 24.18C18.707 24.8317 19.2353 25.36 19.887 25.36Z" fill="white"/>
<path d="M16.7894 21.0495C17.4411 21.0495 17.9694 20.5211 17.9694 19.8695C17.9694 19.2178 17.4411 18.6895 16.7894 18.6895C16.1377 18.6895 15.6094 19.2178 15.6094 19.8695C15.6094 20.5211 16.1377 21.0495 16.7894 21.0495Z" fill="white"/>
<path d="M16.7894 12.4284C17.4411 12.4284 17.9694 11.9001 17.9694 11.2484C17.9694 10.5967 17.4411 10.0684 16.7894 10.0684C16.1377 10.0684 15.6094 10.5967 15.6094 11.2484C15.6094 11.9001 16.1377 12.4284 16.7894 12.4284Z" fill="white"/>
<path d="M16.7894 3.80922C17.4411 3.80922 17.9694 3.28091 17.9694 2.62922C17.9694 1.97752 17.4411 1.44922 16.7894 1.44922C16.1377 1.44922 15.6094 1.97752 15.6094 2.62922C15.6094 3.28091 16.1377 3.80922 16.7894 3.80922Z" fill="white"/>
<path d="M16.7894 35.9297C16.1394 35.9297 15.6094 36.4497 15.6094 37.1097C15.6094 37.7597 16.1394 38.2897 16.7894 38.2897C17.4394 38.2897 17.9694 37.7597 17.9694 37.1097C17.9594 36.4497 17.4294 35.9297 16.7894 35.9297Z" fill="white"/>
<path d="M29.6488 21.0495C30.3004 21.0495 30.8288 20.5211 30.8288 19.8695C30.8288 19.2178 30.3004 18.6895 29.6488 18.6895C28.9971 18.6895 28.4688 19.2178 28.4688 19.8695C28.4688 20.5211 28.9971 21.0495 29.6488 21.0495Z" fill="white"/>
<path d="M35.6302 29.57C35.7702 29.63 35.9202 29.66 36.0802 29.66C36.4002 29.66 36.6902 29.53 36.9202 29.31C37.1402 29.09 37.2602 28.79 37.2602 28.49C37.2602 28.17 37.1302 27.87 36.9202 27.65C36.4802 27.2 35.6802 27.2 35.2502 27.65C35.0402 27.86 34.9102 28.17 34.9102 28.49C34.9102 28.8 35.0302 29.09 35.2502 29.31C35.3602 29.43 35.4902 29.51 35.6302 29.57Z" fill="white"/>
<path d="M29.6488 29.6686C30.3004 29.6686 30.8288 29.1403 30.8288 28.4886C30.8288 27.8369 30.3004 27.3086 29.6488 27.3086C28.9971 27.3086 28.4688 27.8369 28.4688 28.4886C28.4688 29.1403 28.9971 29.6686 29.6488 29.6686Z" fill="white"/>
<path d="M23.2073 29.6686C23.859 29.6686 24.3873 29.1403 24.3873 28.4886C24.3873 27.8369 23.859 27.3086 23.2073 27.3086C22.5556 27.3086 22.0273 27.8369 22.0273 28.4886C22.0273 29.1403 22.5556 29.6686 23.2073 29.6686Z" fill="white"/>
<path d="M36.9202 10.4295C36.6402 10.1495 36.2402 10.0195 35.8502 10.0995C35.7802 10.1095 35.7102 10.1395 35.6402 10.1695C35.5702 10.1895 35.5002 10.2295 35.4302 10.2795C35.3702 10.3295 35.3102 10.3695 35.2502 10.4295C35.1402 10.5395 35.0602 10.6695 35.0002 10.8095C34.9402 10.9495 34.9102 11.0995 34.9102 11.2595C34.9102 11.5795 35.0302 11.8695 35.2502 12.0995C35.3702 12.2095 35.5002 12.2995 35.6402 12.3595C35.7802 12.4195 35.9302 12.4395 36.0902 12.4395C36.2402 12.4395 36.4002 12.4195 36.5402 12.3595C36.6802 12.2995 36.8102 12.2095 36.9302 12.0995C37.0402 11.9795 37.1202 11.8495 37.1902 11.7095C37.2502 11.5695 37.2702 11.4195 37.2702 11.2595C37.2602 10.9495 37.1302 10.6395 36.9202 10.4295Z" fill="white"/>
<path d="M35.2502 19.0292C35.0402 19.2392 34.9102 19.5492 34.9102 19.8692C34.9102 20.1792 35.0302 20.4692 35.2502 20.6892C35.3702 20.8092 35.5002 20.8892 35.6402 20.9492C35.7802 21.0092 35.9302 21.0392 36.0902 21.0392C36.4102 21.0392 36.7002 20.9092 36.9302 20.6892C37.1502 20.4692 37.2702 20.1692 37.2702 19.8692C37.2702 19.5492 37.1402 19.2492 36.9302 19.0292C36.4802 18.5892 35.6802 18.5892 35.2502 19.0292Z" fill="white"/>
<path d="M26.3167 5.75977C25.6667 5.75977 25.1367 6.28977 25.1367 6.93977C25.1367 7.58977 25.6667 8.11977 26.3167 8.11977C26.9667 8.11977 27.4967 7.58977 27.4967 6.93977C27.4967 6.28977 26.9667 5.75977 26.3167 5.75977Z" fill="white"/>
<path d="M26.3167 16.7389C26.9684 16.7389 27.4967 16.2106 27.4967 15.5589C27.4967 14.9072 26.9684 14.3789 26.3167 14.3789C25.665 14.3789 25.1367 14.9072 25.1367 15.5589C25.1367 16.2106 25.665 16.7389 26.3167 16.7389Z" fill="white"/>
<path d="M26.3167 33.9791C26.9684 33.9791 27.4967 33.4508 27.4967 32.7991C27.4967 32.1474 26.9684 31.6191 26.3167 31.6191C25.665 31.6191 25.1367 32.1474 25.1367 32.7991C25.1367 33.4508 25.665 33.9791 26.3167 33.9791Z" fill="white"/>
<path d="M29.6488 12.4284C30.3004 12.4284 30.8288 11.9001 30.8288 11.2484C30.8288 10.5967 30.3004 10.0684 29.6488 10.0684C28.9971 10.0684 28.4688 10.5967 28.4688 11.2484C28.4688 11.9001 28.9971 12.4284 29.6488 12.4284Z" fill="white"/>
<path d="M26.3167 25.36C26.9684 25.36 27.4967 24.8317 27.4967 24.18C27.4967 23.5283 26.9684 23 26.3167 23C25.665 23 25.1367 23.5283 25.1367 24.18C25.1367 24.8317 25.665 25.36 26.3167 25.36Z" fill="white"/>
<path d="M16.7894 29.6686C17.4411 29.6686 17.9694 29.1403 17.9694 28.4886C17.9694 27.8369 17.4411 27.3086 16.7894 27.3086C16.1377 27.3086 15.6094 27.8369 15.6094 28.4886C15.6094 29.1403 16.1377 29.6686 16.7894 29.6686Z" fill="white"/>
<path d="M11.5266 37.1097C11.5266 36.4497 10.9966 35.9297 10.3466 35.9297C9.78656 35.9297 9.34656 36.3197 9.22656 36.8397C9.85656 37.2397 10.5066 37.6097 11.1866 37.9397C11.3966 37.7197 11.5266 37.4297 11.5266 37.1097Z" fill="white"/>
<path d="M29.6488 35.9297C28.9888 35.9297 28.4688 36.4497 28.4688 37.1097C28.4688 37.4297 28.5988 37.7197 28.8088 37.9397C29.4888 37.6097 30.1388 37.2397 30.7688 36.8397C30.6488 36.3097 30.1988 35.9297 29.6488 35.9297Z" fill="white"/>
<path d="M19.887 33.9791C20.5387 33.9791 21.067 33.4508 21.067 32.7991C21.067 32.1474 20.5387 31.6191 19.887 31.6191C19.2353 31.6191 18.707 32.1474 18.707 32.7991C18.707 33.4508 19.2353 33.9791 19.887 33.9791Z" fill="white"/>
<path d="M3.46828 18.779C3.32828 18.839 3.19828 18.929 3.07828 19.039C2.86828 19.259 2.73828 19.559 2.73828 19.879C2.73828 20.029 2.77828 20.189 2.82828 20.329C2.88828 20.469 2.96828 20.599 3.07828 20.709C3.29828 20.929 3.59828 21.059 3.91828 21.059C4.23828 21.059 4.52828 20.929 4.75828 20.709C4.97828 20.489 5.09828 20.189 5.09828 19.889C5.09828 19.569 4.96828 19.279 4.75828 19.049C4.41828 18.709 3.90828 18.599 3.46828 18.779Z" fill="white"/>
<path d="M3.08 29.3087C3.3 29.5287 3.6 29.6587 3.92 29.6587C4.24 29.6587 4.53 29.5287 4.76 29.3087C4.98 29.0887 5.1 28.7887 5.1 28.4887C5.1 28.1687 4.97 27.8787 4.76 27.6487C4.43 27.3187 3.91 27.2087 3.48 27.3887C3.34 27.4487 3.21 27.5387 3.09 27.6487C2.88 27.8687 2.75 28.1687 2.75 28.4887C2.75 28.6387 2.79 28.7987 2.84 28.9387C2.89 29.0787 2.98 29.2087 3.08 29.3087Z" fill="white"/>
<path d="M7.02766 33.9791C7.67935 33.9791 8.20766 33.4508 8.20766 32.7991C8.20766 32.1474 7.67935 31.6191 7.02766 31.6191C6.37596 31.6191 5.84766 32.1474 5.84766 32.7991C5.84766 33.4508 6.37596 33.9791 7.02766 33.9791Z" fill="white"/>
<path d="M33.5898 6.11891C33.3198 5.83891 32.9198 5.70891 32.5298 5.78891C32.4598 5.79891 32.3798 5.82891 32.3098 5.85891C32.2398 5.87891 32.1798 5.91891 32.1098 5.96891C32.0498 6.01891 31.9798 6.05891 31.9298 6.11891C31.8198 6.22891 31.7298 6.34891 31.6698 6.49891C31.6098 6.63891 31.5898 6.78891 31.5898 6.94891C31.5898 7.26891 31.7098 7.55891 31.9298 7.78891C32.0398 7.89891 32.1698 7.98891 32.3098 8.04891C32.4498 8.10891 32.5998 8.12891 32.7698 8.12891C33.0898 8.12891 33.3798 8.00891 33.5898 7.78891C33.8098 7.56891 33.9398 7.26891 33.9398 6.94891C33.9398 6.79891 33.8998 6.63891 33.8498 6.49891C33.7898 6.34891 33.6998 6.21891 33.5898 6.11891Z" fill="white"/>
<path d="M28.4766 2.63C28.4766 3.28 28.9966 3.81 29.6566 3.81C30.1266 3.81 30.5266 3.53 30.7166 3.13C30.0566 2.72 29.3766 2.34 28.6766 2C28.5566 2.19 28.4766 2.4 28.4766 2.63Z" fill="white"/>
<path d="M31.9265 33.6288C32.0365 33.7388 32.1665 33.8288 32.3065 33.8888C32.4465 33.9488 32.5965 33.9688 32.7665 33.9688C33.0865 33.9688 33.3765 33.8488 33.5865 33.6288C33.8065 33.4088 33.9365 33.1088 33.9365 32.7888C33.9365 32.6388 33.8965 32.4788 33.8465 32.3388C33.7865 32.1988 33.7065 32.0688 33.5865 31.9588C33.3165 31.6788 32.9165 31.5488 32.5265 31.6288C32.4565 31.6388 32.3765 31.6688 32.3065 31.6988C32.2365 31.7188 32.1765 31.7588 32.1065 31.8088C32.0465 31.8588 31.9765 31.8988 31.9265 31.9588C31.8165 32.0688 31.7265 32.1888 31.6665 32.3388C31.6065 32.4788 31.5865 32.6288 31.5865 32.7888C31.5765 33.1088 31.6965 33.4088 31.9265 33.6288Z" fill="white"/>
<path d="M31.9265 25.0096C32.0365 25.1196 32.1665 25.2096 32.3065 25.2696C32.4465 25.3296 32.5965 25.3496 32.7665 25.3496C33.0865 25.3496 33.3765 25.2296 33.5865 25.0096C33.8065 24.7896 33.9365 24.4896 33.9365 24.1696C33.9365 24.0196 33.8965 23.8596 33.8465 23.7196C33.7865 23.5796 33.7065 23.4496 33.5865 23.3396C33.3165 23.0596 32.9165 22.9296 32.5265 23.0096C32.4565 23.0196 32.3765 23.0496 32.3065 23.0796C32.2365 23.0996 32.1765 23.1396 32.1065 23.1896C32.0465 23.2396 31.9765 23.2796 31.9265 23.3396C31.8165 23.4496 31.7265 23.5696 31.6665 23.7196C31.6065 23.8596 31.5865 24.0096 31.5865 24.1696C31.5765 24.4996 31.6965 24.7896 31.9265 25.0096Z" fill="white"/>
<path d="M32.2981 16.6583C32.4381 16.7183 32.5881 16.7383 32.7581 16.7383C33.0781 16.7383 33.3681 16.6183 33.5781 16.3983C33.7981 16.1783 33.9281 15.8783 33.9281 15.5583C33.9281 15.4083 33.8881 15.2483 33.8381 15.1083C33.7781 14.9683 33.6981 14.8383 33.5781 14.7283C33.3081 14.4483 32.9081 14.3183 32.5181 14.3983C32.4481 14.4083 32.3681 14.4383 32.2981 14.4683C32.2281 14.4883 32.1681 14.5283 32.0981 14.5783C32.0381 14.6283 31.9681 14.6683 31.9181 14.7283C31.8081 14.8383 31.7181 14.9583 31.6581 15.1083C31.5981 15.2483 31.5781 15.3983 31.5781 15.5583C31.5781 15.8783 31.6981 16.1683 31.9181 16.3983C32.0281 16.4983 32.1581 16.5983 32.2981 16.6583Z" fill="white"/>
<path d="M7.02766 8.11977C7.68766 8.11977 8.20766 7.58977 8.20766 6.93977C8.20766 6.28977 7.68766 5.75977 7.02766 5.75977C6.37766 5.75977 5.84766 6.28977 5.84766 6.93977C5.84766 7.58977 6.37766 8.11977 7.02766 8.11977Z" fill="white"/>
<path d="M10.3469 3.81C11.0069 3.81 11.5369 3.28 11.5369 2.63C11.5369 2.39 11.4469 2.18 11.3269 2C10.6269 2.34 9.94687 2.71 9.29688 3.12C9.47688 3.53 9.87688 3.81 10.3469 3.81Z" fill="white"/>
<path d="M13.4673 5.75977C12.8073 5.75977 12.2773 6.28977 12.2773 6.93977C12.2773 7.58977 12.8073 8.11977 13.4673 8.11977C14.1173 8.11977 14.6473 7.58977 14.6473 6.93977C14.6373 6.28977 14.1073 5.75977 13.4673 5.75977Z" fill="white"/>
<path d="M13.4673 31.6191C12.8073 31.6191 12.2773 32.1491 12.2773 32.7991C12.2773 33.4491 12.8073 33.9791 13.4673 33.9791C14.1173 33.9791 14.6473 33.4491 14.6473 32.7991C14.6373 32.1491 14.1073 31.6191 13.4673 31.6191Z" fill="white"/>
<path d="M10.3597 21.0495C11.0114 21.0495 11.5397 20.5211 11.5397 19.8695C11.5397 19.2178 11.0114 18.6895 10.3597 18.6895C9.70799 18.6895 9.17969 19.2178 9.17969 19.8695C9.17969 20.5211 9.70799 21.0495 10.3597 21.0495Z" fill="white"/>
<path d="M13.4673 14.3789C12.8073 14.3789 12.2773 14.9089 12.2773 15.5589C12.2773 16.2089 12.8073 16.7389 13.4673 16.7389C14.1173 16.7389 14.6473 16.2089 14.6473 15.5589C14.6373 14.9089 14.1073 14.3789 13.4673 14.3789Z" fill="white"/>
<path d="M13.4673 23C12.8073 23 12.2773 23.53 12.2773 24.18C12.2773 24.83 12.8073 25.36 13.4673 25.36C14.1173 25.36 14.6473 24.83 14.6473 24.18C14.6373 23.53 14.1073 23 13.4673 23Z" fill="white"/>
<path d="M10.3597 29.6686C11.0114 29.6686 11.5397 29.1403 11.5397 28.4886C11.5397 27.8369 11.0114 27.3086 10.3597 27.3086C9.70799 27.3086 9.17969 27.8369 9.17969 28.4886C9.17969 29.1403 9.70799 29.6686 10.3597 29.6686Z" fill="white"/>
<path d="M7.02766 25.36C7.67935 25.36 8.20766 24.8317 8.20766 24.18C8.20766 23.5283 7.67935 23 7.02766 23C6.37596 23 5.84766 23.5283 5.84766 24.18C5.84766 24.8317 6.37596 25.36 7.02766 25.36Z" fill="white"/>
<path d="M7.02766 16.7389C7.67935 16.7389 8.20766 16.2106 8.20766 15.5589C8.20766 14.9072 7.67935 14.3789 7.02766 14.3789C6.37596 14.3789 5.84766 14.9072 5.84766 15.5589C5.84766 16.2106 6.37596 16.7389 7.02766 16.7389Z" fill="white"/>
<path d="M10.3497 10.0684C9.69969 10.0684 9.17969 10.5984 9.17969 11.2484C9.17969 11.8984 9.69969 12.4284 10.3497 12.4284C11.0097 12.4284 11.5397 11.8984 11.5397 11.2484C11.5397 10.5984 11.0097 10.0684 10.3497 10.0684Z" fill="white"/>
<path d="M4.74828 10.4295C4.47828 10.1495 4.06828 10.0195 3.68828 10.0995C3.60828 10.1095 3.53828 10.1395 3.46828 10.1695C3.39828 10.1895 3.32828 10.2295 3.26828 10.2795C3.19828 10.3295 3.13828 10.3695 3.07828 10.4295C2.96828 10.5395 2.88828 10.6695 2.82828 10.8095C2.76828 10.9495 2.73828 11.0995 2.73828 11.2595C2.73828 11.5795 2.86828 11.8695 3.07828 12.0995C3.19828 12.2095 3.32828 12.2995 3.46828 12.3595C3.60828 12.4195 3.75828 12.4395 3.91828 12.4395C4.06828 12.4395 4.22828 12.4195 4.36828 12.3595C4.51828 12.2995 4.63828 12.2095 4.75828 12.0995C4.86828 11.9795 4.95828 11.8495 5.01828 11.7095C5.07828 11.5695 5.09828 11.4195 5.09828 11.2595C5.09828 10.9495 4.96828 10.6395 4.74828 10.4295Z" fill="white"/>
<path d="M20 2C29.93 2 38 10.07 38 20C38 29.93 29.93 38 20 38C10.07 38 2 29.93 2 20C2 10.07 10.07 2 20 2ZM20 0C8.95 0 0 8.95 0 20C0 31.05 8.95 40 20 40C31.05 40 40 31.05 40 20C40 8.95 31.05 0 20 0Z" fill="white"/>
</svg>
