<svg width="26" height="21" viewBox="0 0 26 21" fill="none" xmlns="http://www.w3.org/2000/svg">
<path d="M8.17648 21.0007C17.9878 21.0007 23.3542 12.9207 23.3542 5.91382C23.3542 5.68432 23.3542 5.45586 23.3386 5.22843C24.3828 4.47791 25.2834 3.54855 26 2.48377C25.0266 2.91278 23.9938 3.19397 22.9362 3.31802C24.05 2.65538 24.883 1.61334 25.2814 0.385217C24.2341 1.00238 23.089 1.43863 21.8941 1.67226C19.8744 -0.463508 16.4944 -0.565851 14.3468 1.44173C12.9615 2.73704 12.3739 4.66606 12.8034 6.50824C8.51448 6.29425 4.51776 4.28046 1.8096 0.968263C0.39416 3.39039 1.11696 6.49066 3.46112 8.04648C2.61248 8.02167 1.78152 7.79425 1.04 7.3828C1.04 7.40451 1.04 7.42726 1.04 7.45C1.04104 9.97446 2.83088 12.1485 5.3196 12.6478C4.5344 12.8608 3.71072 12.8918 2.91096 12.7388C3.60984 14.8983 5.61288 16.3787 7.89464 16.4211C6.006 17.8962 3.67224 18.6974 1.26984 18.6953C0.84552 18.6943 0.4212 18.6695 0 18.6188C2.43984 20.1747 5.278 21.0007 8.17648 20.9965" fill="#5A5C5B"/>
</svg>
