<svg width="188" height="188" viewBox="0 0 188 188" fill="none" xmlns="http://www.w3.org/2000/svg">
<g clip-path="url(#clip0)">
<path d="M176.4 11.4004H11.4004V176.4H176.4V11.4004Z" stroke="#222021" stroke-width="3" stroke-miterlimit="10"/>
<path d="M93.9 38.3C104.062 38.3 112.3 30.062 112.3 19.9C112.3 9.73796 104.062 1.5 93.9 1.5C83.738 1.5 75.5 9.73796 75.5 19.9C75.5 30.062 83.738 38.3 93.9 38.3Z" stroke="#222021" stroke-width="3" stroke-miterlimit="10"/>
<path d="M146.2 59.8996C156.362 59.8996 164.6 51.6616 164.6 41.4996C164.6 31.3376 156.362 23.0996 146.2 23.0996C136.038 23.0996 127.8 31.3376 127.8 41.4996C127.8 51.6616 136.038 59.8996 146.2 59.8996Z" stroke="#222021" stroke-width="3" stroke-miterlimit="10"/>
<path d="M167.9 112.3C178.062 112.3 186.3 104.062 186.3 93.9C186.3 83.738 178.062 75.5 167.9 75.5C157.738 75.5 149.5 83.738 149.5 93.9C149.5 104.062 157.738 112.3 167.9 112.3Z" stroke="#222021" stroke-width="3" stroke-miterlimit="10"/>
<path d="M146.2 164.601C156.362 164.601 164.6 156.363 164.6 146.201C164.6 136.039 156.362 127.801 146.2 127.801C136.038 127.801 127.8 136.039 127.8 146.201C127.8 156.363 136.038 164.601 146.2 164.601Z" stroke="#222021" stroke-width="3" stroke-miterlimit="10"/>
<path d="M93.9 186.3C104.062 186.3 112.3 178.062 112.3 167.9C112.3 157.738 104.062 149.5 93.9 149.5C83.738 149.5 75.5 157.738 75.5 167.9C75.5 178.062 83.738 186.3 93.9 186.3Z" stroke="#222021" stroke-width="3" stroke-miterlimit="10"/>
<path d="M41.4996 164.601C51.6616 164.601 59.8996 156.363 59.8996 146.201C59.8996 136.039 51.6616 127.801 41.4996 127.801C31.3376 127.801 23.0996 136.039 23.0996 146.201C23.0996 156.363 31.3376 164.601 41.4996 164.601Z" stroke="#222021" stroke-width="3" stroke-miterlimit="10"/>
<path d="M19.9 112.3C30.062 112.3 38.3 104.062 38.3 93.9C38.3 83.738 30.062 75.5 19.9 75.5C9.73796 75.5 1.5 83.738 1.5 93.9C1.5 104.062 9.73796 112.3 19.9 112.3Z" stroke="#222021" stroke-width="3" stroke-miterlimit="10"/>
<path d="M41.4996 59.8996C51.6616 59.8996 59.8996 51.6616 59.8996 41.4996C59.8996 31.3376 51.6616 23.0996 41.4996 23.0996C31.3376 23.0996 23.0996 31.3376 23.0996 41.4996C23.0996 51.6616 31.3376 59.8996 41.4996 59.8996Z" stroke="#222021" stroke-width="3" stroke-miterlimit="10"/>
<path d="M38.2002 93.9004H149.5" stroke="#222021" stroke-width="3" stroke-miterlimit="10"/>
<path d="M93.9004 38.1992V149.499" stroke="#222021" stroke-width="3" stroke-miterlimit="10"/>
<path d="M133.2 133.2L54.5 54.5" stroke="#222021" stroke-width="3" stroke-miterlimit="10"/>
<path d="M54.5 133.2L133.2 54.5" stroke="#222021" stroke-width="3" stroke-miterlimit="10"/>
</g>
<defs>
<clipPath id="clip0">
<rect width="187.8" height="187.8" fill="white"/>
</clipPath>
</defs>
</svg>
