<svg width="320" height="111" viewBox="0 0 320 111" fill="none" xmlns="http://www.w3.org/2000/svg">
<g clip-path="url(#clip0)">
<path d="M92.2068 0V65.2703L69.3872 34.6216H41.1055L92.1663 103.905H115.229V0H92.2068Z" fill="#EE3524"/>
<path d="M23.0623 69.2852H0V103.907H23.0623V69.2852Z" fill="#EE3524"/>
<path d="M149.785 60.5255V34.5391H153.427V60.5255H149.785Z" fill="#222021"/>
<path d="M163.459 60.5254H160.02V42.8903H163.378V45.4038C164.672 43.2146 166.736 42.3633 168.799 42.3633C173.007 42.3633 175.071 45.4038 175.071 49.3363V60.5254H171.632V49.9444C171.632 47.4714 170.62 45.5254 167.545 45.5254C164.834 45.5254 163.459 47.6741 163.459 50.3498V60.5254Z" fill="#222021"/>
<path d="M184.42 60.5254H180.98V42.8903H184.339V45.4038C185.633 43.2146 187.697 42.3633 189.76 42.3633C193.968 42.3633 196.032 45.4038 196.032 49.3363V60.5254H192.593V49.9444C192.593 47.4714 191.581 45.5254 188.506 45.5254C185.795 45.5254 184.42 47.6741 184.42 50.3498V60.5254Z" fill="#222021"/>
<path d="M218.406 51.7281C218.406 57.12 214.683 61.093 209.424 61.093C204.164 61.093 200.441 57.0795 200.441 51.7281C200.441 46.3768 204.164 42.3633 209.424 42.3633C214.683 42.3633 218.406 46.3768 218.406 51.7281ZM214.926 51.7281C214.926 47.6741 212.377 45.4444 209.424 45.4444C206.51 45.4444 203.921 47.6336 203.921 51.7281C203.921 55.8227 206.47 58.0525 209.424 58.0525C212.337 58.0119 214.926 55.8227 214.926 51.7281Z" fill="#222021"/>
<path d="M230.667 60.5258H227.187L220.066 42.8906H223.951L228.968 56.4717L234.025 42.8906H237.707L230.667 60.5258Z" fill="#222021"/>
<path d="M245.432 50.4714L250.206 49.7822C251.258 49.62 251.541 49.093 251.541 48.4444C251.541 46.7417 250.409 45.2822 247.738 45.2822C245.311 45.2822 243.975 46.7822 243.733 48.8498L240.455 48.0795C240.82 44.7146 243.854 42.3633 247.657 42.3633C252.917 42.3633 254.981 45.3633 254.981 48.8092V57.6471C254.981 59.1876 255.142 60.12 255.183 60.5254H251.825C251.744 60.0795 251.622 59.4308 251.622 58.1335C250.854 59.3903 249.114 61.0525 245.958 61.0525C242.357 61.0525 240.051 58.5795 240.051 55.7822C240.091 52.6606 242.397 50.9173 245.432 50.4714ZM251.541 52.9849V52.1741L246.16 52.9849C244.704 53.1876 243.611 54.039 243.611 55.62C243.611 56.9579 244.704 58.1741 246.484 58.1741C249.276 58.2146 251.541 56.8363 251.541 52.9849Z" fill="#222021"/>
<path d="M265.297 42.932H269.101V46.0536H265.297V55.2158C265.297 56.8374 265.945 57.6482 267.765 57.6482C268.21 57.6482 268.817 57.5672 269.101 57.4861V60.405C268.817 60.5266 267.927 60.7293 266.754 60.7293C263.76 60.7293 261.858 58.905 261.858 55.7023V46.0131H258.5V42.8915H259.471C261.373 42.8915 262.182 41.7158 262.182 40.1753V37.2969H265.338V42.932H265.297Z" fill="#222021"/>
<path d="M275.699 33.7695C277.074 33.7695 278.167 34.8641 278.167 36.2425C278.167 37.5803 277.074 38.7155 275.699 38.7155C274.363 38.7155 273.23 37.6209 273.23 36.2425C273.271 34.8641 274.363 33.7695 275.699 33.7695ZM274.04 60.5263V42.8912H277.438V60.5263H274.04Z" fill="#222021"/>
<path d="M300.175 51.7281C300.175 57.12 296.453 61.093 291.193 61.093C285.933 61.093 282.211 57.0795 282.211 51.7281C282.211 46.3768 285.933 42.3633 291.193 42.3633C296.453 42.3633 300.175 46.3768 300.175 51.7281ZM296.655 51.7281C296.655 47.6741 294.106 45.4444 291.153 45.4444C288.239 45.4444 285.65 47.6336 285.65 51.7281C285.65 55.8227 288.199 58.0525 291.153 58.0525C294.106 58.0119 296.655 55.8227 296.655 51.7281Z" fill="#222021"/>
<path d="M308.388 60.5254H304.949V42.8903H308.307V45.4038C309.602 43.2146 311.666 42.3633 313.729 42.3633C317.937 42.3633 320 45.4038 320 49.3363V60.5254H316.561V49.9444C316.561 47.4714 315.55 45.5254 312.475 45.5254C309.764 45.5254 308.388 47.6741 308.388 50.3498V60.5254Z" fill="#222021"/>
<path d="M166.496 103.904L154.722 85.4585V103.904H149.664V77.918H155.935L166.738 95.1072V77.918H171.796V103.904H166.496Z" fill="#222021"/>
<path d="M195.14 94.9035C195.14 100.458 191.094 104.471 185.712 104.471C180.331 104.471 176.285 100.458 176.285 94.9035C176.285 89.3495 180.331 85.3359 185.712 85.3359C191.094 85.3359 195.14 89.3089 195.14 94.9035ZM190.244 94.9035C190.244 91.4981 188.059 89.7549 185.672 89.7549C183.285 89.7549 181.1 91.4576 181.1 94.9035C181.1 98.2684 183.285 100.052 185.672 100.052C188.059 100.012 190.244 98.3089 190.244 94.9035Z" fill="#222021"/>
<path d="M210.312 90.7302C209.746 90.6085 209.301 90.568 208.856 90.568C206.388 90.568 204.203 91.7842 204.203 95.6761V103.906H199.348V85.8653H204.081V88.541C205.174 86.1491 207.682 85.7031 209.22 85.7031C209.625 85.7031 209.989 85.7437 210.353 85.7842V90.7302H210.312Z" fill="#222021"/>
<path d="M229.897 85.8633L233.781 97.4984L237.099 85.8633H241.954L236.33 103.904H231.475L227.267 91.5795L223.14 103.904H218.204L212.418 85.8633H217.556L220.874 97.4579L224.799 85.8633H229.897Z" fill="#222021"/>
<path d="M249.56 93.5266L253.97 92.878C254.981 92.7158 255.305 92.2293 255.305 91.5807C255.305 90.2834 254.334 89.2293 252.271 89.2293C250.167 89.2293 248.993 90.5671 248.832 92.1482L244.502 91.2158C244.785 88.378 247.375 85.2969 252.23 85.2969C257.935 85.2969 260.039 88.5401 260.039 92.1482V101.027C260.039 102 260.16 103.256 260.241 103.905H255.791C255.669 103.418 255.588 102.446 255.588 101.756C254.658 103.175 252.958 104.432 250.288 104.432C246.444 104.432 244.098 101.837 244.098 98.9996C244.179 95.7563 246.566 93.9725 249.56 93.5266ZM255.346 96.6077V95.7969L251.3 96.405C250.045 96.6077 249.074 97.2969 249.074 98.6752C249.074 99.7293 249.843 100.783 251.421 100.783C253.444 100.783 255.346 99.8104 255.346 96.6077Z" fill="#222021"/>
<path d="M265.946 110.998L270.194 101.634L262.547 85.8633H268.009L272.783 96.4038L277.193 85.8633H282.413L271.124 110.998H265.946Z" fill="#222021"/>
</g>
<defs>
<clipPath id="clip0">
<rect width="320" height="111" fill="white"/>
</clipPath>
</defs>
</svg>
