<svg width="601" height="601" viewBox="0 0 601 601" fill="none" xmlns="http://www.w3.org/2000/svg">
<path d="M600.211 0.149902H0.210938V600.15H600.211V0.149902Z" fill="black"/>
<path d="M88.1097 128.37C107.815 128.37 123.79 112.395 123.79 92.6898C123.79 72.9842 107.815 57.0098 88.1097 57.0098C68.4042 57.0098 52.4297 72.9842 52.4297 92.6898C52.4297 112.395 68.4042 128.37 88.1097 128.37Z" fill="white"/>
<path d="M509.48 566.745V518.18H517.975L563.68 555.385V517.285H573.34V569.605H564.215L519.14 532.4V566.745H509.48V566.745Z" fill="white"/>
<path d="M541.411 450.745C559.746 450.745 574.861 462.285 574.861 481.335C574.861 500.385 559.746 511.925 541.411 511.925C523.256 511.925 507.961 500.385 507.961 481.335C507.961 462.28 523.256 450.745 541.411 450.745ZM541.411 500.74C553.666 500.74 565.736 495.015 565.736 481.33C565.736 467.645 553.661 461.92 541.411 461.92C529.156 461.92 517.081 467.645 517.081 481.33C517.086 495.015 529.156 500.74 541.411 500.74Z" fill="white"/>
<path d="M509.48 423.465V411.57L573.34 386.975V398.96L556.435 404.955V430.445L573.34 436.435V447.975L509.48 423.465ZM547.94 427.405V407.905L520.48 417.475V417.745L547.94 427.405Z" fill="white"/>
<path d="M509.48 363.815V351.92L573.34 327.325V339.31L556.435 345.305V370.795L573.34 376.785V388.325L509.48 363.815ZM547.94 367.75V348.25L520.48 357.82V358.09L547.94 367.75Z" fill="white"/>
<path d="M509.48 304.16V292.265L573.34 267.67V279.655L556.435 285.645V311.135L573.34 317.125V328.665L509.48 304.16ZM547.94 308.095V288.595L520.48 298.165V298.435L547.94 308.095Z" fill="white"/>
<path d="M509.48 244.505V232.61L573.34 208.015V220L556.435 225.99V251.48L573.34 257.47V269.01L509.48 244.505ZM547.94 248.445V228.945L520.48 238.515V238.785L547.94 248.445Z" fill="white"/>
<path d="M573.34 162.495V205.245C562.965 205.155 555.36 199.97 549.64 191.47C543.65 183.33 538.82 172.865 529.07 172.6C524.6 172.6 517.98 174.3 517.98 183.155C517.98 191.205 524.775 193.62 533.63 193.89V204.085C519.765 204.085 509.48 196.485 509.48 182.53C509.48 167.235 520.66 162.405 528.71 162.405C548.745 162.405 553.04 189.595 564.215 192.995V162.495H573.34V162.495Z" fill="white"/>
<path d="M558.496 112.32V120.37H573.341V130.03H558.496V156.86H548.391L510.736 130.03V120.37H550.446V112.32H558.496ZM550.446 148.99V130.03H522.901V130.21L550.446 148.99Z" fill="white"/>
<path d="M573.34 63.0402V105.79C562.965 105.7 555.36 100.515 549.64 92.0152C543.65 83.8752 538.82 73.4102 529.07 73.1452C524.6 73.1452 517.98 74.8452 517.98 83.7002C517.98 91.7502 524.775 94.1652 533.63 94.4352V104.63C519.765 104.63 509.48 97.0302 509.48 83.0752C509.48 67.7802 520.66 62.9502 528.71 62.9502C548.745 62.9502 553.04 90.1402 564.215 93.5402V63.0402H573.34Z" fill="white"/>
<path d="M521.111 54.815C521.111 46.32 518.336 38 510.736 36.57V28.25H573.341V39.43H529.156V54.815H521.111V54.815Z" fill="white"/>
<path d="M365.265 27.21C245.23 27.21 141.44 127.745 68.8803 300.295C-3.98966 473.595 16.3203 573.38 135.605 573.38C254.89 573.38 359.43 472.845 431.985 300.295C504.86 126.99 486.05 27.21 365.265 27.21ZM334.54 98.48C367.275 98.48 384.79 115.9 385.975 151.88L120.575 399.36C126.88 372.015 138.105 339.055 154.405 300.295C210.56 166.75 271.525 98.48 334.54 98.48ZM165.575 502.105C134.615 502.105 117.455 486.52 114.845 454.4L378.355 208.685C371.885 234.505 361.31 264.985 346.465 300.29C288.415 438.335 229.345 502.105 165.575 502.105Z" fill="white"/>
</svg>
